Coordinates
version=1
nRows=15
nColumns=34
inDegrees=yes

Units are S.I. units (second, meters, Newtons, ...)
If the header above contains a line with 'inDegrees', this indicates whether rotational values are in degrees (yes) or radians (no).

endheader
time	pelvis_tilt	pelvis_list	pelvis_rotation	pelvis_tx	pelvis_ty	pelvis_tz	hip_flexion_r	hip_adduction_r	hip_rotation_r	knee_angle_r	ankle_angle_r	subtalar_angle_r	mtp_angle_r	hip_flexion_l	hip_adduction_l	hip_rotation_l	knee_angle_l	ankle_angle_l	subtalar_angle_l	mtp_angle_l	lumbar_extension	lumbar_bending	lumbar_rotation	arm_flex_r	arm_add_r	arm_rot_r	elbow_flex_r	pro_sup_r	arm_flex_l	arm_add_l	arm_rot_l	elbow_flex_l	pro_sup_l
      5.98333330	     -0.67643213	    -12.40014495	      2.10289138	      0.46883784	      0.74575680	     -0.13047550	     55.48370573	      4.55852489	     -4.10149294	     18.20687411	    -11.21775454	     -1.16422375	      0.00000000	     41.85451591	      0.57305886	      6.61396888	     73.72989050	     20.86668861	    -35.00000000	      0.00000000	    -37.04315018	      3.94195473	      7.65030593	     89.54311573	      3.33422346	     76.06055112	    117.98844055	     97.96694642	    100.81568539	      3.87093013	     84.91762894	    117.62918169	     78.69457774
      6.00000000	     -0.88987734	    -12.46123379	      1.81039971	      0.46750436	      0.74158999	     -0.13009437	     56.50588685	      4.38163064	     -4.14562911	     18.04397294	    -11.21051585	     -1.00160283	      0.00000000	     42.52977154	      0.38461257	      6.48182829	     74.48732504	     21.45510574	    -35.00000000	      0.00000000	    -37.71062169	      3.72418280	      8.25437334	     90.63277677	      3.18750223	     75.53286220	    117.80538590	     97.90054569	    101.60228564	      3.84012005	     84.83201644	    117.50922253	     78.70523803
      6.01666670	     -1.20792774	    -12.38767276	      1.64184755	      0.46756502	      0.73969861	     -0.13033698	     57.29481770	      4.10987270	     -4.13522862	     17.38480980	    -11.71958630	     -0.64988289	      0.00000000	     43.15375673	      0.43705480	      6.57729271	     74.67017818	     22.88882822	    -34.99924196	      0.00000000	    -38.25921871	      3.36025558	      8.56460272	     91.56440415	      2.92425592	     75.47253398	    117.83462151	     97.82864406	    102.19489041	      4.59633379	     85.32561646	    117.85570898	     78.75845232
      6.03333330	     -1.44802605	    -12.14763355	      1.86449156	      0.46506587	      0.73928191	     -0.13040870	     58.05358326	      3.42676590	     -4.44062547	     16.86708396	    -11.91136942	     -0.86242912	      0.00000000	     43.81134607	      0.79843763	      6.70390808	     74.74924512	     24.79060903	    -34.44240846	      0.00000000	    -38.85548309	      2.94232296	      8.58517005	     92.24717354	      2.35944138	     75.50659993	    118.19550641	     97.67163657	    103.22682641	      5.34962970	     86.74727958	    118.33025631	     78.85793688
      6.05000000	     -1.78236181	    -12.07254689	      1.54699783	      0.46616042	      0.73871555	     -0.13167680	     58.62636735	      3.22423018	     -4.65647893	     16.49936386	    -11.99075419	     -1.70308484	      0.00000000	     43.96147326	      0.75929607	      6.51350066	     74.80746301	     25.68259962	    -34.06963846	      0.00000000	    -39.40327206	      2.56931674	      8.86049909	     93.04715079	      2.61846701	     76.49106195	    118.30132243	     97.53437899	    103.68339774	      5.53182725	     87.39402479	    118.32147692	     78.89077846
      6.06666670	     -1.90566890	    -12.07662106	      1.36363823	      0.46809551	      0.73553124	     -0.13059481	     59.03747350	      3.21880305	     -5.24419831	     15.85175197	    -12.39329908	     -2.36928953	      0.00000000	     43.76180172	      0.57885249	      6.35628294	     74.82699375	     26.69620386	    -33.73097566	      0.00000000	    -39.79216919	      2.22037146	      9.34858202	     93.65320004	      2.74031518	     77.87508320	    118.33864890	     97.43523571	    103.63105856	      6.09558728	     88.32531722	    118.76293859	     78.94670606
      6.08333330	     -2.09831051	    -12.08264766	      1.00357309	      0.46439021	      0.73597948	     -0.13190349	     59.35437205	      3.31495348	     -6.17700580	     14.74965109	    -13.30605066	     -2.47916036	      0.00000000	     43.75013485	      0.53482114	      6.07076816	     74.86722283	     27.10109873	    -33.31376043	      0.00000000	    -40.37396086	      1.72495507	      9.31158935	     93.97353836	      3.19307345	     78.78527588	    118.75660461	     97.35676370	    103.86231287	      6.08417116	     88.99020184	    118.91239161	     78.97846394
      6.10000000	     -2.05767738	    -12.09069387	      0.64240887	      0.46515823	      0.73374697	     -0.13192781	     59.61575629	      3.58023047	     -7.42321883	     14.20779863	    -13.71679787	     -2.94116338	      0.00000000	     43.47726559	      0.35364438	      5.67399061	     74.96152885	     26.82615061	    -33.39366189	      0.00000000	    -41.00736795	      1.39136686	      9.62595921	     94.28906176	      3.47318189	     79.96245784	    118.80885513	     97.30314404	    103.89329566	      6.41316372	     89.73154706	    119.40703759	     79.00798902
      6.11666670	     -2.23456850	    -12.15205089	      0.55976352	      0.46375945	      0.73342538	     -0.13152289	     60.05333247	      3.70062986	     -7.85945305	     13.93195668	    -13.79248524	     -3.01866712	      0.00000000	     43.93195217	      0.28453200	      5.58995146	     75.32105187	     27.01862237	    -33.47639323	      0.00000000	    -41.55598628	      1.05257906	      9.55545587	     94.61241750	      3.37020235	     80.01979426	    118.87171276	     97.27277157	    104.15304765	      5.94541738	     89.70152017	    119.17688470	     78.99464067
      6.13333330	     -2.57456164	    -12.25571959	      0.75145107	      0.46265251	      0.73289873	     -0.13187305	     60.63901304	      3.56470987	     -8.27561150	     13.87257791	    -14.05013910	     -2.80712984	      0.00000000	     44.61748548	      0.36950297	      5.75815246	     75.67318985	     27.19180950	    -33.23631351	      0.00000000	    -42.15404992	      0.90159477	      9.28877250	     95.26718205	      3.95141522	     80.70083054	    119.37893903	     97.21656185	    104.73459575	      5.85231995	     89.59026233	    119.06338512	     78.95725350
      6.15000000	     -2.78611532	    -12.40037491	      0.77109260	      0.46268703	      0.73041935	     -0.13214217	     60.91095881	      3.68707267	     -8.27592122	     13.68139599	    -14.02457842	     -2.38413711	      0.00000000	     45.18644450	      0.25456686	      5.89047386	     75.91089425	     27.58771898	    -33.18910120	      0.00000000	    -42.70769450	      0.81175332	      9.21524652	     95.33013757	      4.21191795	     81.04267376	    119.73136176	     97.19295211	    105.05193559	      5.72081132	     89.53135692	    119.02358386	     78.93662642
      6.16666670	     -2.65026733	    -12.62759368	      0.92487028	      0.46519042	      0.73064945	     -0.13291579	     60.74630327	      3.74298826	     -8.99458074	     13.56361261	    -13.40004543	     -0.59450396	      0.00000000	     45.09831187	     -0.03949633	      5.88487576	     76.16840232	     28.29396094	    -32.12784751	      0.00000000	    -43.41688951	      0.84761002	      9.12076088	     95.33388782	      4.15807856	     81.55792363	    120.29022613	     97.10472482	    105.11370947	      5.53121462	     89.46217700	    118.98961908	     78.86747166
      6.18333330	     -2.72251454	    -12.87819745	      0.89153198	      0.46419022	      0.72942376	     -0.13351324	     60.74035776	      3.97554619	     -8.91399496	     13.47909232	    -13.27814263	     -0.22071299	      0.00000000	     45.37754391	     -0.40039465	      5.74336386	     76.52093851	     27.85245732	    -31.81749990	      0.00000000	    -43.84781475	      0.88218721	      9.21943731	     95.19827933	      4.05670125	     81.39633406	    120.27824299	     97.08235260	    105.42009824	      5.23952851	     89.21295454	    118.67988091	     78.84492566
      6.20000000	     -2.75574521	    -13.00239957	      0.93155377	      0.46272732	      0.72846924	     -0.13427132	     60.61057327	      3.95280602	     -8.59646917	     13.07846674	    -13.22599791	      0.52756919	      0.00000000	     45.78700234	     -0.41304588	      5.85755962	     76.81338027	     28.07159639	    -31.58416195	      0.00000000	    -44.32253509	      0.90596781	      9.22019378	     95.08956537	      3.96460049	     81.11635961	    120.42145146	     97.06051778	    105.55670570	      5.15314114	     88.97276544	    118.42860462	     78.82892119
      6.21666670	     -2.99114877	    -13.18627700	      0.86918010	      0.46294366	      0.72543819	     -0.13408292	     60.78510056	      3.92949036	     -9.20777252	     12.93917346	    -12.53641578	      1.91375585	      0.00000000	     46.52513018	     -0.69687381	      5.89534117	     77.40695662	     29.36058767	    -30.26120159	      0.00000000	    -44.45235034	      0.72425097	      9.41376811	     94.84000360	      3.50883460	     80.21887193	    121.06578845	     97.01907848	    105.58188787	      5.49306452	     88.52853893	    118.08536762	     78.82350090
